<?xml version="1.0" encoding="UTF-8"?>
<svg width="24px" height="24px" viewBox="0 0 24 24" version="1.1" xmlns="http://www.w3.org/2000/svg" xmlns:xlink="http://www.w3.org/1999/xlink">
    <title>圆角-照相@2x</title>
    <g id="页面-1" stroke="none" stroke-width="1" fill="none" fill-rule="evenodd">
        <g id="余料识别" transform="translate(-139.000000, -177.000000)">
            <g id="圆角-照相" transform="translate(139.000000, 177.000000)">
                <rect id="图标边界" x="0" y="0" width="24" height="24"></rect>
                <path d="M14.74493,3 C15.1080971,3 15.4427177,3.19689188 15.6190873,3.51435707 L16.444,5 L21,5 C21.5522847,5 22,5.44771525 22,6 L22,18.6666667 C22,19.2189514 21.5522847,19.6666667 21,19.6666667 L3,19.6666667 C2.44771525,19.6666667 2,19.2189514 2,18.6666667 L2,6 C2,5.44771525 2.44771525,5 3,5 L7.555,5 L8.38091274,3.51435707 C8.55728229,3.19689188 8.89190289,3 9.25507002,3 L14.74493,3 Z M12,7.5 C9.23857625,7.5 7,9.73857625 7,12.5 C7,15.2614237 9.23857625,17.5 12,17.5 C14.7614237,17.5 17,15.2614237 17,12.5 C17,9.73857625 14.7614237,7.5 12,7.5 Z M12,10 C13.3807119,10 14.5,11.1192881 14.5,12.5 C14.5,13.8807119 13.3807119,15 12,15 C10.6192881,15 9.5,13.8807119 9.5,12.5 C9.5,11.1192881 10.6192881,10 12,10 Z" id="Combined-Shape" fill="#C0C4CC"></path>
            </g>
        </g>
    </g>
</svg>