<?xml version="1.0" encoding="UTF-8"?>
<svg width="53px" height="56px" viewBox="0 0 53 56" version="1.1" xmlns="http://www.w3.org/2000/svg" xmlns:xlink="http://www.w3.org/1999/xlink">
    <title>图纸已生成@2x</title>
    <g id="页面-1" stroke="none" stroke-width="1" fill="none" fill-rule="evenodd">
        <g id="图纸已生成" fill-rule="nonzero">
            <g id="图纸完成">
                <path d="M23.081225,3.55271368e-15 L12.918775,3.55271368e-15 C10.6164048,3.55271368e-15 8.61684687,1.57672402 8.00331292,3.81669274 L7.9983755,3.83463687 L6.11185087,3.83463687 C2.73638349,3.83463687 0,6.64100112 0,10.1027933 L0,37.7318436 C0,41.1936358 2.73638349,44 6.11185087,44 L29.8881491,44 C33.2636165,44 36,41.1936358 36,37.7318436 L36,10.1027933 C36,6.64100112 33.2636165,3.83463687 29.8881491,3.83463687 L28.0016245,3.83463687 L27.9966871,3.81669274 C27.3831531,1.57672402 25.3835952,3.55271368e-15 23.081225,3.55271368e-15 Z" id="路径" fill="#1890FF"></path>
                <path d="M29.8881491,6.93184358 C31.5957284,6.93184358 32.9800266,8.35154413 32.9800266,10.1027933 L32.9800266,37.7320402 L32.9795952,37.7842503 C32.9522716,39.5133765 31.5766977,40.9027933 29.8881491,40.9027933 L6.11165912,40.9027933 L6.060751,40.9023508 C4.37474301,40.8743285 3.01997337,39.4635754 3.01997337,37.7318436 L3.01997337,10.1025966 L3.02040479,10.0503866 C3.04772836,8.32126034 4.42330226,6.93184358 6.11185087,6.93184358 L8.02598668,6.93184358 L8.03116378,6.94939441 C8.67681491,9.14039777 10.6526445,10.6681564 12.918775,10.6681564 L23.081225,10.6681564 C25.3473555,10.6681564 27.323233,9.1403486 27.9688842,6.94934525 L27.9740133,6.93184358 L29.8881491,6.93184358 Z" id="路径" fill="#FFFFFF"></path>
                <g id="完成" transform="translate(29.000000, 32.000000)">
                    <path d="M12,0 C18.627417,0 24,5.372583 24,12 C24,18.627417 18.627417,24 12,24 C5.372583,24 0,18.627417 0,12 C0,5.372583 5.372583,0 12,0 Z" id="路径" fill="#1890FF"></path>
                    <path d="M12,2.4 C17.3019336,2.4 21.6,6.6980664 21.6,12 C21.6,17.3019336 17.3019336,21.6 12,21.6 C6.6980664,21.6 2.4,17.3019336 2.4,12 C2.4,6.6980664 6.6980664,2.4 12,2.4 Z" id="路径" fill="#FFFFFF" opacity="0.9"></path>
                    <polygon id="路径" fill="#1890FF" points="18.21 9 11.112 16.2 10.902 16.398 10.692 16.2 6.294 11.748 7.728 10.296 10.902 13.506 16.8 7.53"></polygon>
                </g>
                <path d="M23.081225,3.0972067 C24.2328415,3.0972067 25.1664447,4.05468603 25.1664447,5.23575419 L25.1664447,5.43259888 L25.1661571,5.46774972 C25.1477497,6.63392179 24.2199947,7.57094972 23.081225,7.57094972 L12.9185832,7.57094972 L12.8843089,7.57065475 C11.747217,7.55177654 10.8335553,6.60029497 10.8335553,5.43240223 L10.8335553,5.23555754 L10.8338429,5.2004067 C10.8522503,4.03423464 11.7800053,3.0972067 12.918775,3.0972067 L23.081225,3.0972067 Z" id="路径" fill="#FFFFFF"></path>
            </g>
            <path d="M22.4101198,26.6949721 L13.5898802,26.6949721 C12.7559361,26.6949721 12.0798935,27.3883039 12.0798935,28.2435754 L12.0798935,28.3418994 C12.0798935,29.1971709 12.7559361,29.8905028 13.5898802,29.8905028 L22.4101198,29.8905028 C23.2440639,29.8905028 23.9201065,29.1971709 23.9201065,28.3418994 L23.9201065,28.2435754 C23.9201065,27.3883039 23.2440639,26.6949721 22.4101198,26.6949721 Z" id="路径" fill="#1890FF"></path>
            <path d="M22.4101198,17.550838 L13.5898802,17.550838 C12.7559361,17.550838 12.0798935,18.2441698 12.0798935,19.0994413 L12.0798935,19.1977654 C12.0798935,20.0530369 12.7559361,20.7463687 13.5898802,20.7463687 L22.4101198,20.7463687 C23.2440639,20.7463687 23.9201065,20.0530369 23.9201065,19.1977654 L23.9201065,19.0994413 C23.9201065,18.2441698 23.2440639,17.550838 22.4101198,17.550838 Z" id="路径" fill="#1890FF"></path>
        </g>
    </g>
</svg>