<?xml version="1.0" encoding="UTF-8"?>
<svg width="104px" height="103px" viewBox="0 0 104 103" version="1.1" xmlns="http://www.w3.org/2000/svg" xmlns:xlink="http://www.w3.org/1999/xlink">
    <title>邮箱@2x</title>
    <defs>
        <linearGradient x1="50%" y1="0%" x2="50%" y2="100%" id="linearGradient-1">
            <stop stop-color="#3DB6FF" offset="0%"></stop>
            <stop stop-color="#1D7FFF" offset="100%"></stop>
            <stop stop-color="#1372ED" offset="100%"></stop>
        </linearGradient>
        <filter x="-68.9%" y="-86.8%" width="237.7%" height="273.8%" filterUnits="objectBoundingBox" id="filter-2">
            <feGaussianBlur stdDeviation="10" in="SourceGraphic"></feGaussianBlur>
        </filter>
        <linearGradient x1="50%" y1="0%" x2="50%" y2="100%" id="linearGradient-3">
            <stop stop-color="#3DB6FF" offset="0%"></stop>
            <stop stop-color="#1D7FFF" offset="100%"></stop>
        </linearGradient>
    </defs>
    <g id="页面-1" stroke="none" stroke-width="1" fill="none" fill-rule="evenodd">
        <g id="余料识别推送成功" transform="translate(-136.000000, -79.000000)" fill-rule="nonzero">
            <g id="邮箱" transform="translate(138.000000, 79.000000)">
                <rect id="矩形" fill="#F2F4F7" x="0" y="0" width="100" height="100" rx="50"></rect>
                <path d="M55.2955968,39.4897463 L57.9349989,41.0951702 L60.9965611,41.0960076 C63.2057001,41.0960076 64.9965611,42.8868686 64.9965611,45.0960076 L64.9959989,45.3911702 L71.3025259,49.2275023 L71.7800011,49.5183779 L71.7800011,70.4614254 C71.7800011,71.5316283 70.9073741,72.4042553 69.8371712,72.4042553 L30.1628288,72.4042553 C29.0926259,72.4042553 28.2199989,71.5371166 28.2199989,70.4614254 L28.2199989,49.5183779 L28.7029623,49.2275023 L34.9319989,45.4821702 L34.932092,45.0960076 C34.932092,42.8868686 36.722953,41.0960076 38.932092,41.0960076 L42.2289989,41.0951702 L44.9459244,39.4625863 C48.1325836,37.546836 52.1190362,37.5572974 55.2955968,39.4897463 Z" id="形状结合" fill="url(#linearGradient-1)" opacity="0.647438227" filter="url(#filter-2)"></path>
                <g id="编组" transform="translate(23.000000, 27.595745)">
                    <path d="M53.098245,16.0559138 L53.098245,41.5848168 C53.098245,42.8893598 52.0345407,43.9530641 50.7299977,43.9530641 L2.36824729,43.9530641 C1.06370429,43.9530641 2.21254069e-14,42.8960497 2.21254069e-14,41.5848168 L2.21254069e-14,16.0559138 L0.58871684,15.7013457 L52.5162181,15.7013457 L53.098245,16.0559138 Z" id="路径" fill="url(#linearGradient-3)"></path>
                    <path d="M53.098245,16.0559138 L26.5457775,26.3382903 L3.31881103e-14,16.0559138 L0.58871684,15.7013457 L21.5232878,3.11593636 C24.709947,1.20018606 28.6963996,1.21064745 31.8729603,3.14309633 L52.5162181,15.7013457 L52.5162181,15.7013457 L53.098245,16.0559138 Z" id="路径" fill="#317EE1"></path>
                    <path d="M44.8294494,9.78931465 L44.8294494,20.4579102 L44.8294494,20.4579102 L26.5457775,26.3382903 L8.18182608,20.4110804 L8.18182608,9.78931465 C8.18182608,7.58017565 9.97268708,5.78931465 12.1818261,5.78931465 L40.8294494,5.78931465 C43.0385884,5.78931465 44.8294494,7.58017565 44.8294494,9.78931465 Z" id="路径" fill="#FFFFFF"></path>
                    <path d="M14.5491843,11.2186509 L24.0901692,11.2186509 C24.6287833,11.2186509 25.0654163,11.6552839 25.0654163,12.193898 C25.0654163,12.7325122 24.6287833,13.1691452 24.0901692,13.1691452 L14.5491843,13.1691452 C14.0105701,13.1691452 13.5739371,12.7325122 13.5739371,12.193898 C13.5739371,11.6552839 14.0105701,11.2186509 14.5491843,11.2186509 Z" id="路径" fill="#2186FF"></path>
                </g>
            </g>
        </g>
    </g>
</svg>